<svg xmlns="http://www.w3.org/2000/svg" xmlns:xlink="http://www.w3.org/1999/xlink" width="352" zoomAndPan="magnify" viewBox="0 0 264 167.249994" height="223" preserveAspectRatio="xMidYMid meet" version="1.0"><defs><g/><clipPath id="a4f2bb0dbe"><path d="M 0.589844 0 L 263.410156 0 L 263.410156 166.503906 L 0.589844 166.503906 Z M 0.589844 0 " clip-rule="nonzero"/></clipPath><clipPath id="e3bf81492b"><path d="M 0.589844 71.785156 L 94.667969 71.785156 L 94.667969 94.1875 L 0.589844 94.1875 Z M 0.589844 71.785156 " clip-rule="nonzero"/></clipPath><clipPath id="93e173d9d2"><path d="M 156 67 L 251 67 L 251 83 L 156 83 Z M 156 67 " clip-rule="nonzero"/></clipPath><clipPath id="fd870ad76b"><path d="M 157.613281 60.070312 L 251.382812 67.679688 L 249.570312 90.003906 L 155.800781 82.398438 Z M 157.613281 60.070312 " clip-rule="nonzero"/></clipPath><clipPath id="5918c1c199"><path d="M 249.699219 89.992188 L 155.929688 82.382812 L 157.742188 60.058594 L 251.511719 67.667969 Z M 249.699219 89.992188 " clip-rule="nonzero"/></clipPath><clipPath id="42781bc33e"><path d="M 249.699219 89.992188 L 155.929688 82.382812 L 157.742188 60.058594 L 251.511719 67.667969 Z M 249.699219 89.992188 " clip-rule="nonzero"/></clipPath></defs><g clip-path="url(#a4f2bb0dbe)"><path fill="#ffffff" d="M 0.589844 0 L 263.410156 0 L 263.410156 166.503906 L 0.589844 166.503906 Z M 0.589844 0 " fill-opacity="1" fill-rule="nonzero"/></g><g clip-path="url(#e3bf81492b)"><path fill="#000000" d="M 3.789062 93.371094 C 4.023438 92.832031 3.933594 92.171875 3.550781 91.773438 C 3.511719 91.738281 3.476562 91.683594 3.429688 91.65625 C 3.355469 91.609375 3.28125 91.542969 3.199219 91.476562 C 3.199219 91.476562 3.191406 91.46875 3.191406 91.460938 C 3.183594 91.460938 3.183594 91.460938 3.183594 91.460938 C 2.847656 91.136719 2.527344 90.628906 2.324219 90.246094 C 2.316406 90.023438 2.332031 89.769531 2.371094 89.476562 C 2.527344 87.984375 3.738281 86.433594 6 84.804688 C 7.277344 83.851562 8.882812 82.945312 10.828125 82.085938 C 12.84375 81.214844 15.277344 80.460938 18.132812 79.832031 C 24.316406 78.511719 30.285156 78.191406 36.046875 78.863281 C 41.722656 79.546875 47.550781 80.175781 53.542969 80.746094 C 56.820312 81.117188 60.140625 81.328125 63.46875 81.375 C 66.800781 81.417969 70.3125 81.203125 73.988281 80.722656 C 81.988281 79.6875 87.921875 77.824219 91.769531 75.128906 C 92.644531 74.5 93.4375 73.945312 94.171875 73.453125 C 94.242188 73.175781 94.324219 72.90625 94.402344 72.632812 C 94.367188 72.347656 94.328125 72.066406 94.285156 71.785156 C 93.382812 72.417969 92.347656 73.128906 91.148438 73.953125 C 87.203125 76.574219 81.480469 78.378906 73.953125 79.359375 C 67.558594 80.21875 61.460938 80.226562 55.695312 79.390625 C 49.84375 78.558594 43.972656 77.9375 38.085938 77.515625 C 34.898438 77.300781 31.640625 77.238281 28.324219 77.359375 C 25.011719 77.472656 21.613281 77.929688 18.125 78.707031 C 14.71875 79.488281 11.886719 80.371094 9.640625 81.34375 C 7.480469 82.390625 5.769531 83.433594 4.5 84.464844 C 2.050781 86.523438 0.871094 88.441406 0.980469 90.226562 L 1.046875 90.832031 C 1.0625 90.996094 1.085938 91.144531 1.117188 91.289062 C 1.136719 91.640625 1.136719 92 1.101562 92.3125 C 1.078125 92.539062 1.09375 92.769531 1.117188 92.996094 C 1.175781 93.558594 1.765625 94.097656 2.40625 94.179688 " fill-opacity="1" fill-rule="nonzero"/></g><g fill="#000000" fill-opacity="1"><g transform="translate(94.805232, 99.027296)"><g><path d="M 33.171875 -17.40625 C 29.796875 -12.488281 26.535156 -8.023438 23.390625 -4.015625 C 20.242188 -0.00390625 17.289062 3.226562 14.53125 5.6875 C 11.78125 8.144531 9.289062 9.445312 7.0625 9.59375 C 6.519531 9.644531 5.765625 9.429688 4.796875 8.953125 C 3.828125 8.484375 3.046875 7.78125 2.453125 6.84375 C 1.554688 5.351562 1.054688 3.726562 0.953125 1.96875 C 0.859375 0.207031 1.019531 -1.597656 1.4375 -3.453125 C 1.863281 -5.316406 2.4375 -7.101562 3.15625 -8.8125 C 3.875 -10.519531 4.628906 -12.046875 5.421875 -13.390625 C 4.929688 -13.785156 4.140625 -14.378906 3.046875 -15.171875 C 1.953125 -15.960938 0.898438 -16.726562 -0.109375 -17.46875 C -1.128906 -18.21875 -1.785156 -18.738281 -2.078125 -19.03125 C -3.171875 -20.226562 -3.851562 -21.59375 -4.125 -23.125 C -4.394531 -24.664062 -4.316406 -26.175781 -3.890625 -27.65625 C -3.472656 -29.144531 -2.78125 -30.457031 -1.8125 -31.59375 C -0.851562 -32.738281 0.28125 -33.535156 1.59375 -33.984375 C 2.90625 -34.429688 4.332031 -34.359375 5.875 -33.765625 C 7.957031 -32.816406 8.523438 -31.015625 7.578125 -28.359375 C 6.640625 -25.710938 4.632812 -22.160156 1.5625 -17.703125 C 3.5 -16.265625 4.945312 -15.171875 5.90625 -14.421875 C 6.875 -13.679688 7.546875 -13.1875 7.921875 -12.9375 C 8.296875 -12.6875 8.503906 -12.539062 8.546875 -12.5 C 8.992188 -12.144531 9.144531 -11.445312 9 -10.40625 C 8.851562 -9.363281 8.539062 -8.113281 8.0625 -6.65625 C 7.59375 -5.195312 7.097656 -3.671875 6.578125 -2.078125 C 6.054688 -0.492188 5.632812 1.015625 5.3125 2.453125 C 4.988281 3.890625 4.925781 5.113281 5.125 6.125 C 5.320312 7.144531 5.894531 7.804688 6.84375 8.109375 C 8.425781 8.554688 10.457031 7.757812 12.9375 5.71875 C 15.414062 3.6875 18.253906 0.664062 21.453125 -3.34375 C 24.648438 -7.363281 28.082031 -12.070312 31.75 -17.46875 C 32.195312 -17.863281 32.59375 -18.007812 32.9375 -17.90625 C 33.289062 -17.8125 33.367188 -17.644531 33.171875 -17.40625 Z M 0.59375 -18.4375 C 1.632812 -19.925781 2.625 -21.425781 3.5625 -22.9375 C 4.507812 -24.445312 5.28125 -25.859375 5.875 -27.171875 C 6.46875 -28.492188 6.773438 -29.632812 6.796875 -30.59375 C 6.828125 -31.5625 6.394531 -32.21875 5.5 -32.5625 C 4.8125 -32.863281 4.09375 -32.664062 3.34375 -31.96875 C 2.601562 -31.28125 1.910156 -30.316406 1.265625 -29.078125 C 0.617188 -27.835938 0.113281 -26.5 -0.25 -25.0625 C -0.625 -23.625 -0.757812 -22.296875 -0.65625 -21.078125 C -0.5625 -19.867188 -0.144531 -18.988281 0.59375 -18.4375 Z M 0.59375 -18.4375 "/></g></g></g><g fill="#000000" fill-opacity="1"><g transform="translate(126.552764, 99.027296)"><g><path d="M 10.265625 9.515625 C 8.328125 10.953125 6.613281 11.671875 5.125 11.671875 C 3.9375 11.671875 2.96875 11.257812 2.21875 10.4375 C 1.476562 9.625 0.894531 8.570312 0.46875 7.28125 C 0.0507812 6 -0.253906 4.640625 -0.453125 3.203125 C -0.648438 1.765625 -0.769531 0.414062 -0.8125 -0.84375 C -0.863281 -2.113281 -0.890625 -3.117188 -0.890625 -3.859375 C -0.941406 -7.085938 -0.84375 -10.5625 -0.59375 -14.28125 C -0.34375 -18 0.078125 -21.738281 0.671875 -25.5 C 1.410156 -30.164062 2.375 -34.691406 3.5625 -39.078125 C 4.757812 -43.460938 6.160156 -47.414062 7.765625 -50.9375 C 9.378906 -54.457031 11.175781 -57.242188 13.15625 -59.296875 C 15.144531 -61.359375 17.28125 -62.390625 19.5625 -62.390625 C 21.039062 -62.390625 22.273438 -61.816406 23.265625 -60.671875 C 24.265625 -59.535156 24.800781 -57.835938 24.875 -55.578125 C 24.945312 -53.328125 24.390625 -50.515625 23.203125 -47.140625 C 22.015625 -43.773438 20.003906 -39.882812 17.171875 -35.46875 C 14.347656 -31.050781 10.507812 -26.117188 5.65625 -20.671875 C 5.300781 -19.128906 4.863281 -16.921875 4.34375 -14.046875 C 3.820312 -11.171875 3.414062 -8.195312 3.125 -5.125 C 3.019531 -4.28125 2.90625 -3.101562 2.78125 -1.59375 C 2.664062 -0.0820312 2.628906 1.5 2.671875 3.15625 C 2.722656 4.820312 2.929688 6.285156 3.296875 7.546875 C 3.671875 8.804688 4.304688 9.644531 5.203125 10.0625 C 6.097656 10.488281 7.335938 10.179688 8.921875 9.140625 C 10.210938 8.296875 11.625 6.96875 13.15625 5.15625 C 14.695312 3.351562 16.269531 1.335938 17.875 -0.890625 C 19.488281 -3.117188 21.039062 -5.359375 22.53125 -7.609375 C 24.019531 -9.867188 25.34375 -11.890625 26.5 -13.671875 C 27.664062 -15.460938 28.570312 -16.753906 29.21875 -17.546875 C 29.375 -17.691406 29.625 -17.765625 29.96875 -17.765625 C 30.3125 -17.765625 30.484375 -17.664062 30.484375 -17.46875 C 29.640625 -16.382812 28.625 -14.9375 27.4375 -13.125 C 26.25 -11.3125 24.945312 -9.3125 23.53125 -7.125 C 22.125 -4.945312 20.648438 -2.769531 19.109375 -0.59375 C 17.578125 1.582031 16.050781 3.5625 14.53125 5.34375 C 13.019531 7.132812 11.597656 8.523438 10.265625 9.515625 Z M 5.875 -22.609375 C 10.332031 -27.910156 13.863281 -32.664062 16.46875 -36.875 C 19.070312 -41.09375 20.929688 -44.75 22.046875 -47.84375 C 23.160156 -50.945312 23.691406 -53.515625 23.640625 -55.546875 C 23.597656 -57.578125 23.164062 -59.0625 22.34375 -60 C 21.53125 -60.945312 20.476562 -61.367188 19.1875 -61.265625 C 18.09375 -61.117188 17 -60.226562 15.90625 -58.59375 C 14.820312 -56.957031 13.757812 -54.828125 12.71875 -52.203125 C 11.675781 -49.578125 10.707031 -46.613281 9.8125 -43.3125 C 8.925781 -40.019531 8.144531 -36.585938 7.46875 -33.015625 C 6.800781 -29.441406 6.269531 -25.972656 5.875 -22.609375 Z M 5.875 -22.609375 "/></g></g></g><g clip-path="url(#93e173d9d2)"><g clip-path="url(#fd870ad76b)"><g clip-path="url(#5918c1c199)"><g clip-path="url(#42781bc33e)"><path fill="#000000" d="M 248.253906 68.222656 C 247.980469 68.738281 248.015625 69.402344 248.363281 69.828125 C 248.398438 69.871094 248.433594 69.925781 248.472656 69.960938 C 248.546875 70.011719 248.613281 70.082031 248.691406 70.15625 C 248.691406 70.15625 248.699219 70.164062 248.695312 70.171875 C 248.703125 70.171875 248.703125 70.171875 248.703125 70.171875 C 249.011719 70.519531 249.292969 71.054688 249.460938 71.453125 C 249.453125 71.675781 249.417969 71.929688 249.355469 72.214844 C 249.078125 73.6875 247.746094 75.136719 245.359375 76.582031 C 244.007812 77.425781 242.335938 78.199219 240.328125 78.898438 C 238.25 79.601562 235.761719 80.160156 232.863281 80.554688 C 226.59375 81.367188 220.617188 81.207031 214.929688 80.070312 C 209.328125 78.929688 203.570312 77.832031 197.644531 76.78125 C 194.40625 76.144531 191.117188 75.664062 187.800781 75.351562 C 184.484375 75.035156 180.964844 74.96875 177.265625 75.148438 C 169.207031 75.53125 163.144531 76.910156 159.089844 79.289062 C 158.167969 79.84375 157.332031 80.332031 156.558594 80.761719 C 156.464844 81.03125 156.363281 81.296875 156.261719 81.5625 C 156.277344 81.847656 156.292969 82.128906 156.308594 82.414062 C 157.261719 81.859375 158.351562 81.234375 159.613281 80.507812 C 163.757812 78.214844 169.605469 76.878906 177.191406 76.511719 C 183.632812 76.171875 189.710938 76.65625 195.390625 77.957031 C 201.152344 79.257812 206.957031 80.355469 212.789062 81.246094 C 215.953125 81.722656 219.191406 82.046875 222.507812 82.195312 C 225.816406 82.351562 229.242188 82.167969 232.78125 81.675781 C 236.238281 81.175781 239.132812 80.523438 241.453125 79.734375 C 243.6875 78.863281 245.480469 77.964844 246.828125 77.039062 C 249.4375 75.183594 250.769531 73.367188 250.800781 71.582031 L 250.78125 70.972656 C 250.78125 70.808594 250.769531 70.65625 250.753906 70.511719 C 250.757812 70.160156 250.789062 69.800781 250.851562 69.492188 C 250.890625 69.269531 250.894531 69.035156 250.890625 68.808594 C 250.875 68.246094 250.332031 67.660156 249.699219 67.527344 " fill-opacity="1" fill-rule="nonzero"/></g></g></g></g></svg>